<?xml version="1.0" standalone="no"?>
<!DOCTYPE svg PUBLIC "-//W3C//DTD SVG 20010904//EN"
 "http://www.w3.org/TR/2001/REC-SVG-20010904/DTD/svg10.dtd">
<svg version="1.0" xmlns="http://www.w3.org/2000/svg"
 width="1088.000000pt" height="1088.000000pt" viewBox="0 0 1088.000000 1088.000000"
 preserveAspectRatio="xMidYMid meet">
<metadata>
Created by potrace 1.11, written by Peter Selinger 2001-2013
</metadata>
<g transform="translate(0.000000,1088.000000) scale(0.100000,-0.100000)"
fill="#000000" stroke="none">
<path d="M5276 10508 c-10 -29 -56 -161 -103 -293 -46 -132 -114 -323 -149
-425 -36 -102 -74 -207 -84 -235 -10 -27 -51 -142 -90 -255 -39 -113 -93 -266
-120 -340 -49 -138 -81 -231 -190 -540 -34 -96 -70 -197 -80 -225 -17 -45 -96
-269 -186 -530 -19 -55 -41 -116 -49 -135 -7 -19 -35 -96 -60 -170 -85 -246
-183 -522 -188 -527 -3 -2 -898 -4 -1991 -4 l-1986 0 0 -38 c0 -32 6 -42 42
-72 24 -18 50 -39 58 -46 8 -7 103 -81 210 -165 107 -84 211 -165 230 -180 19
-15 85 -66 145 -114 61 -47 119 -93 130 -103 20 -16 186 -146 290 -226 104
-81 751 -590 781 -614 16 -14 45 -37 64 -51 18 -14 88 -68 154 -121 67 -52
270 -212 451 -354 182 -143 373 -293 426 -335 l96 -76 -69 -235 c-38 -129 -94
-319 -125 -424 -31 -104 -66 -226 -80 -270 -13 -44 -25 -87 -27 -95 -3 -8
-118 -400 -256 -870 -257 -871 -328 -1113 -335 -1140 -2 -8 -42 -145 -90 -305
-138 -466 -144 -489 -142 -492 2 -1 762 504 1690 1123 1011 673 1693 1122
1700 1117 18 -10 2610 -1737 2622 -1746 5 -4 84 -57 175 -117 91 -60 170 -113
177 -119 7 -6 24 -16 38 -23 14 -6 25 -15 25 -20 0 -4 4 -8 8 -8 5 0 80 -47
166 -105 87 -58 159 -105 161 -103 1 2 -38 138 -87 303 -82 277 -298 1010
-338 1150 -10 33 -34 114 -53 180 -20 66 -83 282 -141 480 -59 198 -150 506
-202 685 -53 179 -111 377 -129 440 -19 63 -66 223 -104 354 -39 132 -68 243
-64 247 13 11 1015 797 1041 816 13 10 29 23 36 28 6 6 234 186 506 400 510
400 597 469 616 484 6 5 37 29 70 54 51 40 616 483 684 538 14 11 64 50 112
87 48 37 87 70 88 74 0 4 -825 7 -1832 7 -1008 0 -1923 0 -2033 0 l-200 1 -13
43 c-7 23 -40 116 -72 207 -32 91 -138 390 -234 665 -97 275 -190 536 -206
580 -16 44 -59 166 -95 270 -37 105 -92 260 -122 345 -30 85 -61 173 -68 195
-7 22 -34 99 -60 170 -52 145 -276 780 -336 950 -21 61 -54 153 -72 205 l-34
95 -39 3 c-39 3 -39 3 -58 -50z m102 -608 c53 -152 154 -440 181 -515 12 -33
29 -80 37 -105 16 -44 47 -133 217 -615 47 -132 115 -325 152 -430 36 -104 77
-219 90 -255 23 -63 267 -752 385 -1090 32 -91 67 -190 79 -221 l21 -56 1800
1 c1674 1 1798 0 1782 -16 -9 -9 -181 -145 -382 -302 -201 -158 -372 -292
-380 -299 -8 -7 -62 -49 -120 -94 -58 -45 -240 -188 -405 -318 -165 -130 -313
-246 -330 -259 -87 -68 -254 -199 -280 -221 -16 -13 -142 -112 -280 -220 -137
-107 -257 -201 -265 -208 -8 -7 -76 -60 -150 -117 -170 -133 -180 -141 -180
-157 0 -10 363 -1253 455 -1558 13 -44 62 -210 109 -370 47 -159 109 -373 139
-475 30 -102 103 -349 162 -549 59 -200 113 -384 120 -408 10 -32 10 -42 2
-35 -15 11 -2873 1914 -2949 1964 l-56 36 -1507 -1005 c-829 -552 -1505 -997
-1502 -988 4 8 14 41 23 73 9 31 52 179 96 327 44 149 81 277 83 285 2 8 22
76 44 150 295 1000 356 1204 371 1260 10 36 49 166 85 290 37 124 82 279 101
345 20 66 71 241 115 389 44 148 78 272 77 276 -2 5 -93 79 -203 166 -110 86
-223 176 -251 198 -76 61 -121 96 -180 141 -78 60 -1208 948 -1214 955 -3 3
-23 18 -45 35 -22 16 -42 32 -45 35 -5 5 -125 100 -236 185 -46 36 -117 92
-506 398 -59 47 -102 87 -95 89 6 2 816 3 1799 2 l1787 -1 56 161 c31 89 60
170 65 181 4 11 45 126 90 255 46 129 105 298 132 375 58 162 93 264 176 500
66 186 116 330 308 870 70 198 137 389 149 425 21 60 194 549 217 613 6 15 12
27 13 25 2 -2 21 -55 43 -118z"/>
</g>
</svg>
